<?xml version="1.0"?>
<svg xmlns="http://www.w3.org/2000/svg" xmlns:xlink="http://www.w3.org/1999/xlink" xmlns:svgjs="http://svgjs.com/svgjs" version="1.1" width="512" height="512" x="0" y="0" viewBox="0 0 496 496" style="enable-background:new 0 0 512 512" xml:space="preserve" class=""><g>
<path xmlns="http://www.w3.org/2000/svg" style="" d="M408,300h-48v-16h48c39.704,0,72-32.296,72-72c0-37.176-27.856-67.976-64.816-71.632l-7.208-0.712  l0.04-8.152C408,74.656,361.344,28,304,28c-39.912,0-76.792,23.4-93.944,59.616l-3.984,8.424l-7.72-5.208  C191.744,86.36,184.016,84,176,84c-15.656,0-29.952,9.24-36.424,23.544l-2.904,6.424l-6.744-2.072  C121.544,109.312,112.832,108,104,108c-48.52,0-88,39.48-88,88s39.48,88,88,88h32v16h-32C46.656,300,0,253.344,0,196  S46.656,92,104,92c8.192,0,16.312,0.96,24.224,2.848C138.312,78.344,156.392,68,176,68c8.208,0,16.2,1.776,23.536,5.168  C220.672,35.752,260.792,12,304,12c63.96,0,116.4,50.304,119.824,113.432C465.44,132.904,496,168.952,496,212  C496,260.52,456.52,300,408,300z" fill="#25cbf5" data-original="#333333"/>
<path xmlns="http://www.w3.org/2000/svg" style="" d="M248,268c-17.648,0-32-14.352-32-32s14.352-32,32-32s32,14.352,32,32S265.648,268,248,268z" fill="#5da0a3" data-original="#f9ba48" class=""/>
<g xmlns="http://www.w3.org/2000/svg">
	<path style="" d="M248,484c-80.56,0-156.408-39.424-202.88-105.464l13.08-9.2C101.688,431.12,172.64,468,248,468   s146.312-36.88,189.808-98.664l13.08,9.2C404.408,444.576,328.56,484,248,484z" fill="#25cbf5" data-original="#333333"/>
	<path style="" d="M248,412c-60.88,0-116.616-30.944-149.104-82.776l13.56-8.496C141.992,367.856,192.664,396,248,396   s106.008-28.144,135.536-75.272l13.56,8.496C364.616,381.056,308.88,412,248,412z" fill="#25cbf5" data-original="#333333"/>
	<path style="" d="M248,340c-40.816,0-78.032-24.104-94.816-61.408l14.592-6.56C181.984,303.6,213.472,324,248,324   s66.016-20.4,80.216-51.968l14.592,6.56C326.032,315.896,288.816,340,248,340z" fill="#25cbf5" data-original="#333333"/>
</g>
<g xmlns="http://www.w3.org/2000/svg">
</g>
<g xmlns="http://www.w3.org/2000/svg">
</g>
<g xmlns="http://www.w3.org/2000/svg">
</g>
<g xmlns="http://www.w3.org/2000/svg">
</g>
<g xmlns="http://www.w3.org/2000/svg">
</g>
<g xmlns="http://www.w3.org/2000/svg">
</g>
<g xmlns="http://www.w3.org/2000/svg">
</g>
<g xmlns="http://www.w3.org/2000/svg">
</g>
<g xmlns="http://www.w3.org/2000/svg">
</g>
<g xmlns="http://www.w3.org/2000/svg">
</g>
<g xmlns="http://www.w3.org/2000/svg">
</g>
<g xmlns="http://www.w3.org/2000/svg">
</g>
<g xmlns="http://www.w3.org/2000/svg">
</g>
<g xmlns="http://www.w3.org/2000/svg">
</g>
<g xmlns="http://www.w3.org/2000/svg">
</g>
</g></svg>
