<?xml version="1.0"?>
<svg xmlns="http://www.w3.org/2000/svg" xmlns:xlink="http://www.w3.org/1999/xlink" xmlns:svgjs="http://svgjs.com/svgjs" version="1.1" width="512" height="512" x="0" y="0" viewBox="0 0 520 520" style="enable-background:new 0 0 512 512" xml:space="preserve"><g><g xmlns="http://www.w3.org/2000/svg"><path d="m232.487 38.64c-2.829-2.946-6.736-4.612-10.821-4.612h-180.833c-22.515-.001-40.833 18.318-40.833 40.833v370.277c0 22.516 18.318 40.834 40.833 40.834h258.333c22.516 0 40.833-18.318 40.833-40.834v-288.471c0-3.872-1.497-7.595-4.179-10.388zm-162.487 186.36h70c8.284 0 15 6.716 15 15s-6.716 15-15 15h-70c-8.284 0-15-6.716-15-15s6.716-15 15-15zm200 180h-70c-8.284 0-15-6.716-15-15s6.716-15 15-15h70c8.284 0 15 6.716 15 15s-6.716 15-15 15zm0-50h-200c-8.284 0-15-6.716-15-15s6.716-15 15-15h200c8.284 0 15 6.716 15 15s-6.716 15-15 15zm0-50h-200c-8.284 0-15-6.716-15-15s6.716-15 15-15h200c8.284 0 15 6.716 15 15s-6.716 15-15 15zm3.333-107.5h-77.5c-8.284 0-15-6.716-15-15v-77.5c0-8.284 6.716-15 15-15s15 6.716 15 15v62.5h62.5c8.284 0 15 6.716 15 15s-6.716 15-15 15z" fill="#ffffff" data-original="#000000" style=""/><path d="m505 135v-10c0-22.056-17.944-40-40-40s-40 17.944-40 40v10c-8.284 0-15 6.716-15 15v35h-10c-19.299 0-35 15.701-35 35v80c0 8.284 6.716 15 15 15s15-6.716 15-15v-80c0-2.757 2.243-5 5-5h10v160h109.999.001v-225c0-8.284-6.716-15-15-15z" fill="#ffffff" data-original="#000000" style=""/><path d="m437.443 465.904c4.285 11.422 15.359 19.096 27.557 19.096s23.272-7.674 27.557-19.097l22.838-60.903h-100.79z" fill="#ffffff" data-original="#000000" style=""/></g></g></svg>
