<?xml version="1.0"?>
<svg xmlns="http://www.w3.org/2000/svg" xmlns:xlink="http://www.w3.org/1999/xlink" xmlns:svgjs="http://svgjs.com/svgjs" version="1.1" width="512" height="512" x="0" y="0" viewBox="0 0 512 512" style="enable-background:new 0 0 512 512" xml:space="preserve" class=""><g><path xmlns="http://www.w3.org/2000/svg" d="m48 0h224v96h-224zm0 0" fill="#25cbf5" data-original="#b9e0f7" style=""/><path xmlns="http://www.w3.org/2000/svg" d="m0 64h320v448h-320zm0 0" fill="#25cbf5" data-original="#96d1f3" style="" class=""/><path xmlns="http://www.w3.org/2000/svg" d="m96 400h128v96h-128zm0 0" fill="#ebf7fc" data-original="#ebf7fc" style="" class=""/><path xmlns="http://www.w3.org/2000/svg" d="m80 384v128h160v-128zm32 32h32v64h-32zm96 64h-32v-64h32zm0 0" fill="#25cbf5" data-original="#73c1ef" style="" class=""/><g xmlns="http://www.w3.org/2000/svg" fill="#fff"><path d="m80 320h32v32h-32zm0 0" fill="#ffffff" data-original="#ffffff" style="" class=""/><path d="m144 320h32v32h-32zm0 0" fill="#ffffff" data-original="#ffffff" style="" class=""/><path d="m208 320h32v32h-32zm0 0" fill="#ffffff" data-original="#ffffff" style="" class=""/><path d="m80 256h32v32h-32zm0 0" fill="#ffffff" data-original="#ffffff" style="" class=""/><path d="m144 256h32v32h-32zm0 0" fill="#ffffff" data-original="#ffffff" style="" class=""/><path d="m208 256h32v32h-32zm0 0" fill="#ffffff" data-original="#ffffff" style="" class=""/><path d="m80 192h32v32h-32zm0 0" fill="#ffffff" data-original="#ffffff" style="" class=""/><path d="m144 192h32v32h-32zm0 0" fill="#ffffff" data-original="#ffffff" style="" class=""/><path d="m208 192h32v32h-32zm0 0" fill="#ffffff" data-original="#ffffff" style="" class=""/><path d="m80 128h32v32h-32zm0 0" fill="#ffffff" data-original="#ffffff" style="" class=""/><path d="m144 128h32v32h-32zm0 0" fill="#ffffff" data-original="#ffffff" style="" class=""/><path d="m208 128h32v32h-32zm0 0" fill="#ffffff" data-original="#ffffff" style="" class=""/></g></g></svg>
