<?xml version="1.0"?>
<svg xmlns="http://www.w3.org/2000/svg" xmlns:xlink="http://www.w3.org/1999/xlink" xmlns:svgjs="http://svgjs.com/svgjs" version="1.1" width="512" height="512" x="0" y="0" viewBox="0 0 512 512" style="enable-background:new 0 0 512 512" xml:space="preserve" class=""><g><g xmlns="http://www.w3.org/2000/svg"><path d="m367.4 260.899v9.035c0 45.266-22.485 87.283-60.148 112.395l-36.252 24.166v9.105h17.133c8.284 0 15 6.716 15 15s-6.716 15-15 15h-17.133v33.2c0 8.284-6.716 15-15 15s-15-6.716-15-15v-33.2h-17.133c-8.284 0-15-6.716-15-15s6.716-15 15-15h17.133v-9.105l-36.25-24.166c-37.665-25.112-60.15-67.129-60.15-112.395v-9.035c-84.071 46.89-96.4 131.821-96.4 165.012v71.089c0 8.284 6.716 15 15 15h385.6c8.284 0 15-6.716 15-15v-71.089c0-33.224-12.348-118.132-96.4-165.012z" fill="#ffffff" data-original="#000000" style="" class=""/><path d="m256 252.8c-5.812 0-11.53-.407-17.133-1.176v35.443h34.267v-35.443c-5.604.769-11.322 1.176-17.134 1.176z" fill="#ffffff" data-original="#000000" style="" class=""/><path d="m193.627 236.149-19.027 9.514v24.27c0 35.214 17.492 67.9 46.791 87.435l34.609 23.071 34.61-23.072c29.298-19.535 46.79-52.22 46.79-87.434v-24.271l-19.027-9.514c-4.882 2.813-9.974 5.298-15.24 7.443v58.475c0 8.284-6.716 15-15 15h-64.267c-8.284 0-15-6.716-15-15v-58.475c-5.265-2.144-10.357-4.629-15.239-7.442z" fill="#ffffff" data-original="#000000" style="" class=""/><path d="m256 222.8c52.567 0 95.333-42.766 95.333-95.333v-32.134c0-52.566-42.766-95.333-95.333-95.333s-95.333 42.767-95.333 95.333v32.133c0 52.568 42.766 95.334 95.333 95.334z" fill="#ffffff" data-original="#000000" style="" class=""/></g></g></svg>
