<?xml version="1.0"?>
<svg xmlns="http://www.w3.org/2000/svg" xmlns:xlink="http://www.w3.org/1999/xlink" xmlns:svgjs="http://svgjs.com/svgjs" version="1.1" width="512" height="512" x="0" y="0" viewBox="0 0 512 512.002" style="enable-background:new 0 0 512 512" xml:space="preserve" class=""><g><path xmlns="http://www.w3.org/2000/svg" d="m174.347656 218.539062c8.421875 0 11.765625 2.496094 17.832032 7.027344 5.113281 3.820313 11.554687 8.613282 21.199218 11.175782v-178.554688c-14.882812 7.191406-29.941406 24.609375-42.921875 50.171875-17.429687 34.316406-29.753906 80.648437-34.195312 128.117187 9.117187-2.617187 15.304687-7.21875 20.25-10.910156 6.066406-4.53125 9.410156-7.027344 17.835937-7.027344zm0 0" fill="#ffffff" data-original="#000000" style="" class=""/><path xmlns="http://www.w3.org/2000/svg" d="m208.820312 27.726562c-47.699218 4.265626-93.050781 23.402344-129.46875 54.960938-41.148437 35.664062-68.324218 84.804688-76.519531 138.378906l-2.832031 18.507813 18.664062-1.257813c15.722657-1.058594 24.660157-7.910156 31.1875-12.914062 5.769532-4.425782 8.949219-6.863282 17.269532-6.863282 8.425781 0 11.769531 2.496094 17.835937 7.027344 5.105469 3.8125 11.53125 8.597656 21.152344 11.164063 4.566406-52.835938 17.855469-103.078125 37.597656-141.957031 18.203125-35.847657 40.824219-58.945313 65.113281-67.046876zm0 0" fill="#ffffff" data-original="#000000" style="" class=""/><path xmlns="http://www.w3.org/2000/svg" d="m243.390625 26.382812v-26.382812h-30v26.378906c4.945313-1.257812 9.953125-1.902344 15-1.902344s10.050781.644532 15 1.90625zm0 0" fill="#ffffff" data-original="#000000" style="" class=""/><path xmlns="http://www.w3.org/2000/svg" d="m243.390625 58.195312-.011719 178.546876h-29.996094l-.007812 228.066406c0 9.46875-7.699219 17.171875-17.160156 17.171875-9.460938 0-17.160156-7.703125-17.160156-17.171875v-28.863282h-30v28.863282c0 26.023437 21.15625 47.195312 47.160156 47.195312s47.15625-21.171875 47.160156-47.195312l.007812-228.050782c9.167969-2.613281 15.386719-7.484374 20.347657-11.1875 6.066406-4.53125 9.410156-7.027343 17.832031-7.027343s11.765625 2.496093 17.835938 7.027343c5.101562 3.808594 11.523437 8.59375 21.136718 11.160157-4.460937-47.507813-16.8125-93.917969-34.265625-128.308594-12.980469-25.585937-28.023437-43.023437-42.878906-50.226563zm0 0" fill="#ffffff" data-original="#000000" style="" class=""/><path xmlns="http://www.w3.org/2000/svg" d="m455.550781 220.679688c-8.273437-53.484376-35.480469-102.535157-76.601562-138.113282-36.960938-31.976562-83.113281-51.164062-131.5625-55.015625 24.472656 7.9375 47.289062 31.136719 65.636719 67.292969 19.410156 38.253906 33.023437 89.617188 37.617187 141.648438 9.152344-2.613282 15.351563-7.226563 20.304687-10.925782 6.070313-4.53125 9.414063-7.027344 17.835938-7.027344 8.535156 0 12.109375 2.59375 18.03125 6.886719 6.996094 5.070313 16.574219 12.015625 33.4375 12.554688l18.066406.574219zm0 0" fill="#ffffff" data-original="#000000" style="" class=""/></g></svg>
